<svg id="visual" viewBox="0 0 960 540" width="960" height="540" xmlns="http://www.w3.org/2000/svg" xmlns:xlink="http://www.w3.org/1999/xlink" version="1.1"><rect x="0" y="0" width="960" height="540" fill="#FFF"></rect><path d="M449 0L442 15C435 30 421 60 419.2 90C417.3 120 427.7 150 413.5 180C399.3 210 360.7 240 363.5 270C366.3 300 410.7 330 419.7 360C428.7 390 402.3 420 379.3 450C356.3 480 336.7 510 326.8 525L317 540L0 540L0 525C0 510 0 480 0 450C0 420 0 390 0 360C0 330 0 300 0 270C0 240 0 210 0 180C0 150 0 120 0 90C0 60 0 30 0 15L0 0Z" fill="#EEE4D6" stroke-linecap="round" stroke-linejoin="miter"></path></svg>